<?xml version="1.0" encoding="utf-8"?>
<!-- Generator: Adobe Illustrator 25.2.0, SVG Export Plug-In . SVG Version: 6.00 Build 0)  -->
<svg version="1.1" id="Layer_1" xmlns="http://www.w3.org/2000/svg" xmlns:xlink="http://www.w3.org/1999/xlink" x="0px" y="0px"
	 viewBox="0 0 800 800" style="enable-background:new 0 0 800 800;" xml:space="preserve">
<style type="text/css">
	.st0{fill:#0F0F0F;}
</style>
<g id="Group_63" transform="translate(-446.571 -211.615)">
	<path id="Path_54" class="st0" d="M1220.8,924.9h-119.5c167.3-152.8,179.1-412.4,26.3-579.7C1023.7,231.5,865,185.5,716.4,226.1
		c-10.6,2.9-16.8,13.8-13.9,24.4c2.9,10.6,13.8,16.8,24.4,13.9c197.3-54.2,401.1,61.8,455.3,259.1c38.1,138.8-7.6,287.1-117.2,380.3
		V769.2h-0.1c-0.3-10.9-9.4-19.5-20.3-19.3c-10.5,0.3-19,8.7-19.3,19.3l0,0v175.7c0,11,8.9,19.9,19.9,19.9h175.7
		c11,0,19.9-8.9,19.9-19.9S1231.8,924.9,1220.8,924.9L1220.8,924.9z"/>
	<path id="Path_55" class="st0" d="M966.9,958.8c-197.3,54.2-401.2-61.9-455.3-259.2c-38-138.5,7.4-286.5,116.6-379.7V455h0.2
		c0.6,10.9,9.9,19.3,20.8,18.7c10.1-0.5,18.2-8.6,18.7-18.7h0.1V280.2c0.5-9.7-6.2-18.4-15.8-20.3l-0.2-0.1c-1-0.2-2-0.3-3-0.3
		c-0.3,0-0.6-0.1-0.9-0.1H472.4c-11,0-19.9,8.9-19.9,19.9c0,11,8.9,19.9,19.9,19.9l0,0h119.2C424.8,452.6,413.8,712.1,567.2,879
		c103.9,113,262.2,158.6,410.2,118.1c10.6-2.9,16.8-13.8,13.9-24.4C988.5,962.1,977.5,955.9,966.9,958.8L966.9,958.8L966.9,958.8z"
		/>
</g>
</svg>
